<svg width="48" height="48" viewBox="0 0 48 48" fill="none" xmlns="http://www.w3.org/2000/svg">
<path d="M6 23.0001C5.99312 25.6398 6.60986 28.2438 7.8 30.6001C9.21113 33.4235 11.3805 35.7984 14.0651 37.4586C16.7497 39.1188 19.8435 39.9988 23 40.0001C25.6397 40.0069 28.2438 39.3902 30.6 38.2001L42 42.0001L38.2 30.6001C39.3901 28.2438 40.0069 25.6398 40 23.0001C39.9988 19.8436 39.1188 16.7498 37.4586 14.0652C35.7983 11.3806 33.4235 9.21119 30.6 7.80006C28.2438 6.60992 25.6397 5.99317 23 6.00006H22C17.8313 6.23004 13.8939 7.98958 10.9417 10.9418C7.98952 13.894 6.22998 17.8314 6 22.0001V23.0001Z" stroke="white" stroke-width="4" stroke-linecap="round" stroke-linejoin="round"/>
</svg>
